<?xml version="1.0" encoding="iso-8859-1"?>
<!-- Generator: Adobe Illustrator 19.0.0, SVG Export Plug-In . SVG Version: 6.00 Build 0)  -->
<svg version="1.1" id="Layer_1" xmlns="http://www.w3.org/2000/svg" xmlns:xlink="http://www.w3.org/1999/xlink" x="0px" y="0px"
	 viewBox="0 0 512 512" style="enable-background:new 0 0 512 512;" xml:space="preserve">
<path style="fill:#1E2E57;" d="M256,512c-68.38,0-132.668-26.628-181.019-74.981S0,324.38,0,256S26.629,123.333,74.98,74.981
	S187.62,0.001,256,0.001s132.668,26.628,181.019,74.981S511.999,187.62,511.999,256s-26.628,132.667-74.981,181.019
	S324.379,512,256,512z M256,33.064C133.073,33.064,33.064,133.073,33.064,256S133.073,478.936,256,478.936
	S478.936,378.927,478.936,256S378.927,33.064,256,33.064z"/>
<path style="fill:#40467C;" d="M256,33.064V0.001c-68.38,0-132.668,26.628-181.019,74.981S0,187.62,0,256
	s26.628,132.667,74.981,181.019S187.62,512,256,512v-33.064C133.073,478.936,33.064,378.927,33.064,256S133.071,33.064,256,33.064z"
	/>
<path style="fill:#3BC0DA;" d="M256,445.323c-104.394,0-189.324-84.931-189.324-189.323S151.606,66.677,256,66.677
	S445.324,151.607,445.324,256S360.393,445.323,256,445.323z M256,99.74c-86.163,0-156.261,70.098-156.261,156.26
	S169.837,412.26,256,412.26S412.261,342.162,412.261,256S342.161,99.74,256,99.74z"/>
<path style="fill:#98DAE5;" d="M256,99.74V66.677C151.606,66.677,66.675,151.607,66.675,256S151.606,445.323,256,445.323V412.26
	c-86.163,0-156.261-70.098-156.261-156.26S169.837,99.74,256,99.74z"/>
<path style="fill:#FF1E1E;" d="M256,368.967c-62.291,0-112.967-50.677-112.967-112.967S193.709,143.033,256,143.033
	S368.967,193.709,368.967,256S318.289,368.967,256,368.967z M256,176.096c-44.059,0-79.904,35.844-79.904,79.904
	S211.94,335.904,256,335.904S335.904,300.06,335.904,256S300.058,176.096,256,176.096z"/>
<path style="fill:#FF7F55;" d="M256,176.096v-33.064c-62.291,0-112.967,50.677-112.967,112.967S193.709,368.967,256,368.967v-33.064
	c-44.059,0-79.904-35.844-79.904-79.904S211.94,176.096,256,176.096z"/>
<circle style="fill:#3F54C0;" cx="256" cy="256" r="38.56"/>
<path style="fill:#5F7BF0;" d="M256,294.56c-21.296,0-38.56-17.264-38.56-38.56s17.264-38.56,38.56-38.56V294.56z"/>
<path style="fill:#1E2E57;" d="M256,272.532c-4.231,0-8.462-1.615-11.689-4.843c-6.456-6.455-6.456-16.923,0-23.379L450.969,37.651
	c6.455-6.455,16.923-6.455,23.379,0c6.456,6.455,6.456,16.923,0,23.379l-206.66,206.66C264.461,270.917,260.23,272.532,256,272.532z
	"/>
<path style="fill:#40467C;" d="M244.31,267.69c-6.456-6.455-6.456-16.923,0-23.379l206.66-206.66c6.455-6.455,16.923-6.455,23.379,0
	L244.31,267.69z"/>
<path style="fill:#FF1E1E;" d="M510.933,46.116c-2.294-6.078-7.933-10.249-14.416-10.662l-18.776-1.197l-1.196-18.776
	c-0.413-6.483-4.584-12.122-10.661-14.416c-6.078-2.294-12.934-0.816-17.527,3.778l-79.49,79.489c-3.359,3.359-5.111,8-4.809,12.742
	l2.122,33.297c0.529,8.301,7.145,14.917,15.447,15.447l33.297,2.123c0.352,0.023,0.702,0.033,1.053,0.033
	c4.369,0,8.579-1.731,11.688-4.843l79.49-79.49C511.749,59.049,513.227,52.192,510.933,46.116z"/>
<path style="fill:#FF7F55;" d="M477.743,34.257l-1.196-18.776c-0.413-6.483-4.584-12.122-10.661-14.416
	c-6.078-2.294-12.934-0.816-17.527,3.778l-79.492,79.489c-3.359,3.359-5.111,8-4.809,12.742l2.122,33.297
	c0.264,4.148,2.049,7.877,4.804,10.634L477.743,34.257z"/>
<g>
</g>
<g>
</g>
<g>
</g>
<g>
</g>
<g>
</g>
<g>
</g>
<g>
</g>
<g>
</g>
<g>
</g>
<g>
</g>
<g>
</g>
<g>
</g>
<g>
</g>
<g>
</g>
<g>
</g>
</svg>
